<?xml version="1.0" encoding="utf-8"?>
<!-- Generator: Adobe Illustrator 17.0.1, SVG Export Plug-In . SVG Version: 6.00 Build 0)  -->
<!DOCTYPE svg PUBLIC "-//W3C//DTD SVG 1.0//EN" "http://www.w3.org/TR/2001/REC-SVG-20010904/DTD/svg10.dtd">
<svg version="1.0" xmlns="http://www.w3.org/2000/svg" xmlns:xlink="http://www.w3.org/1999/xlink" x="0px" y="0px"
	 width="566.929px" height="708.661px" viewBox="0 0 566.929 708.661" enable-background="new 0 0 566.929 708.661"
	 xml:space="preserve">
<g id="g" display="none">
</g>
<g id="base1" display="none">
	<path display="inline" fill="none" stroke="#231F20" stroke-miterlimit="10" d="M212.597,83.9
		c-9.092,2.999-15.987,6.841-19.561,11.606c-19.159,25.544-84.661,156.708-121.042,237.401
		c13.697,13.886,31.266,24.362,50.377,29.316c35.962-44.89,43.58-89.193,69.052-130.609c13.697,44.204,9.868,93.575,4.914,138.537
		c-6.091,75.333-23.321,149.966-12.493,224.785c26.311,16.756,68.156,15.314,99.621,16.469l0,0
		c31.465-1.155,73.31,0.288,99.621-16.468c10.828-74.819-6.403-149.452-12.493-224.785c-4.954-44.962-8.783-94.333,4.914-138.537
		c25.472,41.416,33.09,85.719,69.052,130.609c19.111-4.954,36.68-15.429,50.377-29.316
		c-36.381-80.693-101.883-211.857-121.042-237.401c-3.574-4.766-10.469-8.607-19.56-11.606"/>
</g>
<g id="base2" display="none">
	<path display="inline" fill="none" stroke="#231F20" stroke-miterlimit="10" d="M212.597,83.9
		c-9.092,2.999-15.987,6.841-19.561,11.606c-19.159,25.544-84.661,156.708-121.042,237.401
		c13.697,13.886,31.266,24.362,50.377,29.316c35.962-44.89,43.58-89.193,69.052-130.609c13.697,44.204,9.868,93.575,4.914,138.537
		c-6.091,75.333-24.321,109.966-13.493,184.785c26.311,16.756,69.156,15.314,100.621,16.469l0,0
		c31.465-1.155,74.31,0.288,100.621-16.468c10.828-74.819-7.403-109.452-13.493-184.785c-4.954-44.962-8.783-94.333,4.914-138.537
		c25.472,41.416,33.09,85.719,69.052,130.609c19.111-4.954,36.68-15.429,50.377-29.316
		c-36.381-80.693-101.883-211.857-121.042-237.401c-3.574-4.766-10.469-8.607-19.56-11.606"/>
</g>
<g id="base3" display="none">
	<path display="inline" fill="none" stroke="#231F20" stroke-miterlimit="10" d="M212.597,83.9
		c-9.092,2.999-15.987,6.841-19.561,11.606c-19.159,25.544-84.661,156.708-121.042,237.401
		c13.697,13.886,31.266,24.362,50.377,29.316c35.962-44.89,43.58-89.193,69.052-130.609c13.697,44.204,9.868,93.575,4.914,138.537
		C190.247,445.485,187,458,183.844,493.937c26.311,16.756,68.156,15.314,99.621,16.469l0,0c31.465-1.155,73.31,0.288,99.621-16.468
		C379,453,376.682,445.485,370.592,370.152c-4.954-44.962-8.783-94.333,4.914-138.537c25.472,41.416,33.09,85.719,69.052,130.609
		c19.111-4.954,36.68-15.429,50.377-29.316c-36.381-80.693-101.883-211.857-121.042-237.401c-3.574-4.766-10.469-8.607-19.56-11.606
		"/>
</g>
<g id="yaghe1" display="none">
	<path display="inline" fill="none" stroke="#231F20" stroke-miterlimit="10" d="M212.597,83.9c0,0,12.653-5.4,14.903-7.65
		S215.25,86,215.25,86l10.5,4l-18.25,8c0,0,70.929,148,75.965,159.25"/>
	<path display="inline" fill="none" stroke="#231F20" stroke-miterlimit="10" d="M354.332,83.901"/>
	<path display="inline" fill="none" stroke="#231F20" stroke-miterlimit="10" d="M279,291.5c0,0,4.5-29.25,16.75-49.75
		S313.5,214,320.5,200.5s37.498-88.512,42.75-99.25L350,92.75h8.5c0,0-2-2.2-9.75-8.85s-11-7.4-16-11.9s-4-10.75-15.25-14.75
		s-23.071-3.5-34.035-4S253.75,55.5,248.25,57s-12.655,14.677-20.75,19.25"/>
	<path display="inline" fill="none" stroke="#231F20" stroke-width="1.1822" stroke-miterlimit="10" d="M250.25,59
		c0,0-5.285,2.25-4.768,18.5s16.018,79,21.018,96s16.25,56.75,18.25,68.25s0,9,0,9"/>
	<path display="inline" fill="none" stroke="#231F20" stroke-miterlimit="10" d="M283.465,262.5c0,0,0.285-8.5,7.785-40
		s21.25-68.25,23.25-80.25s6.25-42,7-50.5s0-10.75,0-18.25"/>
	<path display="inline" fill="none" stroke="#231F20" stroke-miterlimit="10" d="M354.332,83.901c0,0-2.955-0.308-12.519-5.354"/>
</g>
<g id="yaghe2" display="none">
	<path display="inline" fill="none" stroke="#231F20" stroke-miterlimit="10" d="M212.597,83.9L225,78.5c0,0,12.5,12.5,29,16
		s19.5,9,19.5,17s0.75,30.5-0.75,39s3.5-37.25,16.75-43c9.035-3.921,3.858-4.777,24.358-14.277S330.934,81.376,336.5,78.5
		c1.5-0.775,12.771,3.547,17.832,5.401"/>
</g>
<g id="jib1">
	<path fill="none" stroke="#231F20" stroke-miterlimit="10" d="M232.263,303c0,0,4.533,36.32-31.763,71.927"/>
	<path fill="none" stroke="#231F20" stroke-miterlimit="10" d="M334.681,303c0,0-4.533,36.32,31.763,71.927"/>
</g>
<g id="jib2" display="none">
	<g id="Layer_9" display="inline">
		<path opacity="0.6" fill="none" stroke="#231F20" stroke-miterlimit="10" d="M207.5,301l60.5,2c0,0-0.415,60-2.457,69
			c-2.043,9-51.043,7-61.543,5S208.5,322,207.5,301z"/>
		<path opacity="0.6" fill="none" stroke="#231F20" stroke-miterlimit="10" d="M207,320.667c0,0,45.535,5,61,3.667"/>
	</g>
	<g id="Layer_10" display="inline">
		<path opacity="0.6" fill="none" stroke="#231F20" stroke-miterlimit="10" d="M358.878,301l-60.5,2c0,0,0.415,60,2.457,69
			c2.043,9,51.043,7,61.543,5S357.878,322,358.878,301z"/>
		<path opacity="0.6" fill="none" stroke="#231F20" stroke-miterlimit="10" d="M359.378,320.667c0,0-45.535,5-61,3.667"/>
	</g>
</g>
</svg>
